<?xml version="1.0" encoding="utf-8"?>
<!-- Generator: Adobe Illustrator 25.2.1, SVG Export Plug-In . SVG Version: 6.00 Build 0)  -->
<svg version="1.1" id="Слой_1" xmlns="http://www.w3.org/2000/svg" xmlns:xlink="http://www.w3.org/1999/xlink" x="0px" y="0px"
	 viewBox="0 0 17.32 14.54" style="enable-background:new 0 0 17.32 14.54;" xml:space="preserve">
<path d="M9.96,11.94c-0.55,0.56-1.09,1.11-1.64,1.65c-0.35,0.35-0.71,0.7-1.22,0.78c-0.27,0.04-0.56,0.05-0.83,0
	c-0.55-0.1-0.87-0.48-1.03-1c-0.43-1.35-0.85-2.71-1.27-4.06c-0.1-0.34-0.18-0.68-0.28-1.02C3.67,8.24,3.59,8.2,3.54,8.19
	C2.55,7.88,1.56,7.57,0.57,7.27C0.34,7.2,0.18,7.04,0.04,6.86C-0.01,6.8-0.01,6.66,0.03,6.6c0.1-0.14,0.21-0.31,0.36-0.38
	c0.62-0.29,1.26-0.57,1.9-0.82c3.25-1.26,6.51-2.52,9.77-3.78c1.05-0.41,2.11-0.81,3.16-1.21c0.35-0.13,0.7-0.28,1.06-0.38
	c0.64-0.18,1.17,0.33,1.03,0.99c-0.36,1.7-0.72,3.39-1.08,5.09c-0.48,2.29-0.97,4.58-1.45,6.87c-0.05,0.25-0.1,0.5-0.16,0.74
	c-0.07,0.27-0.22,0.5-0.44,0.68c-0.18,0.14-0.4,0.17-0.6,0.09c-0.19-0.08-0.39-0.17-0.55-0.3c-0.94-0.69-1.86-1.39-2.8-2.08
	C10.14,12.06,10.06,12.01,9.96,11.94z M4.69,8.39C4.7,8.4,4.7,8.42,4.7,8.43c0.49,1.55,0.97,3.1,1.46,4.65
	c0.03,0.09,0.07,0.19,0.14,0.24c0.09,0.06,0.21,0.08,0.31,0.11c0.03-0.08,0.07-0.16,0.07-0.24c0.09-1.11,0.31-3.78,0.31-3.78
	S8.3,8.16,8.97,7.55c1.65-1.5,3.31-2.99,4.96-4.49c0.11-0.1,0.18-0.24,0.28-0.37c-0.28-0.04-0.4-0.02-0.58,0.09
	c-0.97,0.6-1.95,1.21-2.92,1.82C8.7,5.85,6.7,7.12,4.69,8.39z M7.68,12.85c0.5-0.51,0.96-0.99,1.43-1.48
	c-0.39-0.29-0.82-0.61-1.26-0.94C7.8,11.24,7.74,12.02,7.68,12.85z"/>
</svg>
