<?xml version="1.0" encoding="utf-8"?>
<!-- Generator: Adobe Illustrator 25.2.1, SVG Export Plug-In . SVG Version: 6.00 Build 0)  -->
<svg version="1.1" id="Слой_1" xmlns="http://www.w3.org/2000/svg" xmlns:xlink="http://www.w3.org/1999/xlink" x="0px" y="0px"
	 viewBox="0 0 24.71 14.02" style="enable-background:new 0 0 24.71 14.02;" xml:space="preserve">
<path d="M9.95,0c0.04,0,0.07,0,0.11,0c0.06,0,0.11,0.01,0.17,0.01c0.98,0,1.97,0,2.95,0c0.08,0,0.16,0,0.24,0.02
	c0.67,0.12,1.12,0.67,1.12,1.35c0,1.4,0,2.79,0,4.19c0,0.13,0.01,0.26,0.02,0.39c0.03,0.21,0.09,0.42,0.22,0.59
	c0.09,0.13,0.21,0.22,0.38,0.23c0.14,0.01,0.26-0.03,0.38-0.1c0.17-0.09,0.3-0.22,0.43-0.36c0.33-0.36,0.57-0.78,0.8-1.21
	c0.72-1.34,1.43-2.68,2.16-4.01c0.17-0.32,0.44-0.48,0.8-0.48c1.34,0,2.68,0,4.03,0c0.12,0,0.24,0.01,0.36,0.04
	c0.26,0.05,0.46,0.19,0.52,0.46c0.02,0.11,0.02,0.23,0.01,0.34c-0.02,0.24-0.11,0.46-0.21,0.68c-0.25,0.55-0.58,1.05-0.94,1.53
	c-0.86,1.14-1.73,2.28-2.59,3.42c-0.35,0.46-0.34,1.09,0.03,1.54c0.07,0.08,0.15,0.16,0.22,0.24c0.99,1.02,1.98,2.05,2.96,3.07
	c0.21,0.22,0.39,0.46,0.5,0.75c0.08,0.21,0.12,0.43,0.05,0.65c-0.08,0.28-0.28,0.45-0.55,0.55c-0.27,0.11-0.55,0.14-0.84,0.14
	c-1.2,0-2.4,0-3.6,0c-0.35,0-0.66-0.12-0.92-0.36c-0.32-0.3-0.64-0.6-0.96-0.9c-0.59-0.56-1.18-1.11-1.78-1.67
	c-0.18-0.17-0.4-0.26-0.65-0.24c-0.5,0.03-0.85,0.41-0.85,0.91c0,0.45,0,0.9,0,1.35c0,0.51-0.4,0.91-0.91,0.91
	c-0.77,0-1.55,0.01-2.32,0c-0.25,0-0.51-0.03-0.76-0.07c-0.66-0.1-1.27-0.34-1.86-0.66c-0.84-0.45-1.59-1.04-2.28-1.7
	c-0.87-0.83-1.64-1.75-2.35-2.73C2.85,7.2,1.83,5.42,0.94,3.57C0.61,2.88,0.3,2.18,0.04,1.46c-0.15-0.41,0.15-0.83,0.58-0.83
	c1.21,0,2.43,0,3.64,0c0.35,0,0.65,0.21,0.78,0.53c0.78,1.92,1.77,3.73,2.97,5.42c0.03,0.04,0.06,0.09,0.1,0.12
	c0.44,0.43,1.17,0.29,1.43-0.27c0.07-0.15,0.08-0.31,0.08-0.47C9.61,4.89,9.6,3.83,9.58,2.77C9.57,2.44,9.54,2.12,9.41,1.81
	c-0.19-0.46-0.52-0.74-1.02-0.8C8.28,0.99,8.17,1,8.06,0.99c0.01-0.01,0.01-0.02,0.02-0.03c0.38-0.49,0.87-0.79,1.47-0.91
	C9.68,0.02,9.81,0.02,9.95,0z"/>
</svg>
