<?xml version="1.0" encoding="utf-8"?>
<!-- Generator: Adobe Illustrator 25.2.1, SVG Export Plug-In . SVG Version: 6.00 Build 0)  -->
<svg version="1.1" id="Слой_1" xmlns="http://www.w3.org/2000/svg" xmlns:xlink="http://www.w3.org/1999/xlink" x="0px" y="0px"
	 viewBox="0 0 28.14 25" style="enable-background:new 0 0 28.14 25;" xml:space="preserve">
<style type="text/css">
	.st0{fill:#FFFFFF;}
</style>
<path class="st0" d="M14.07,25c-0.2,0-0.39-0.1-0.54-0.27c-0.89-1.07-1.96-2.13-3.26-3.24c-0.71-0.61-1.43-1.22-2.13-1.81
	c-0.65-0.55-1.33-1.12-1.99-1.69c-1.27-1.09-2.25-2.05-3.08-3C2.18,13.95,1.5,12.96,1,11.94c-0.54-1.11-0.86-2.19-0.96-3.32
	c-0.16-1.82,0.11-3.4,0.85-4.83C1.6,2.42,2.68,1.39,4.12,0.72C5.16,0.25,6.29,0,7.48,0c0.1,0,0.2,0,0.3,0
	C8.7,0.04,9.6,0.3,10.55,0.81c0.82,0.44,1.59,1.01,2.34,1.74c0.13,0.12,0.25,0.28,0.38,0.44c0.06,0.08,0.13,0.16,0.2,0.24
	c0.02,0.03,0.04,0.05,0.07,0.08l0.04,0.05l0.51,0.61l0.49-0.62c0.03-0.04,0.07-0.08,0.1-0.12c0.07-0.09,0.14-0.17,0.21-0.26
	c0.32-0.42,0.74-0.77,1.21-1.14c0.7-0.56,1.38-0.98,2.08-1.29C18.97,0.18,19.82,0,20.68,0c0.15,0,0.3,0.01,0.45,0.02
	c1.16,0.08,2.17,0.35,3.09,0.82c0.8,0.41,1.49,0.94,2.04,1.57c0.56,0.63,1.01,1.38,1.33,2.24c0.4,1.05,0.58,2.17,0.53,3.41
	c-0.05,1.63-0.52,3.17-1.43,4.71c-0.6,1.02-1.39,2.03-2.42,3.09c-1,1.04-2.11,1.99-3.07,2.81c-0.34,0.29-0.68,0.57-1.01,0.86
	c-0.99,0.83-2,1.7-3,2.56c-0.93,0.82-1.81,1.71-2.59,2.65C14.47,24.9,14.27,25,14.07,25z M7.49,1.41c-0.88,0-1.7,0.15-2.45,0.45
	C3.77,2.37,2.8,3.21,2.15,4.37C1.72,5.17,1.47,6.06,1.4,7.12C1.34,8.07,1.43,9,1.67,9.86c0.29,1.02,0.78,2.01,1.5,3.01
	c0.72,0.99,1.58,1.94,2.64,2.9c0.98,0.88,1.98,1.76,2.95,2.6c0.3,0.27,0.61,0.53,0.91,0.8c0.86,0.76,2,1.77,3.08,2.85
	c0.2,0.2,0.41,0.4,0.61,0.6c0.09,0.09,0.19,0.18,0.28,0.27l0.46,0.44l0.45-0.46l0.02-0.02c0.02-0.02,0.04-0.04,0.07-0.07
	c0.19-0.19,0.37-0.38,0.55-0.56c0.39-0.4,0.8-0.81,1.21-1.19c1.1-1,2.23-2,3.33-2.96l0.22-0.19c0.17-0.15,0.33-0.29,0.5-0.44
	c0.86-0.75,1.75-1.53,2.58-2.36c1.2-1.19,2-2.21,2.61-3.29c1.02-1.8,1.34-3.72,0.95-5.69c-0.38-1.94-1.48-3.33-3.27-4.15
	c-0.62-0.28-1.3-0.45-2.08-0.52c-0.21-0.02-0.4-0.03-0.58-0.03c-0.37,0-0.71,0.04-1.03,0.12c-0.81,0.21-1.58,0.6-2.43,1.22
	c-0.96,0.7-1.81,1.55-2.6,2.59c-0.13,0.17-0.33,0.27-0.55,0.27c-0.12,0-0.35-0.03-0.52-0.26c-0.57-0.74-1.16-1.38-1.8-1.95
	c-0.79-0.7-1.56-1.22-2.37-1.57C8.75,1.56,8.2,1.42,7.66,1.41C7.6,1.41,7.55,1.41,7.49,1.41z"/>
</svg>
