<?xml version="1.0" encoding="utf-8"?>
<!-- Generator: Adobe Illustrator 25.2.1, SVG Export Plug-In . SVG Version: 6.00 Build 0)  -->
<svg version="1.1" id="Слой_1" xmlns="http://www.w3.org/2000/svg" xmlns:xlink="http://www.w3.org/1999/xlink" x="0px" y="0px"
	 viewBox="0 0 25.16 25" style="enable-background:new 0 0 25.16 25;" xml:space="preserve">
<style type="text/css">
	.st0{fill:#FFFFFF;}
</style>
<path class="st0" d="M25.16,23.92c-0.06,0.15-0.11,0.31-0.2,0.44c-0.34,0.51-1.07,0.62-1.53,0.19c-1.59-1.48-3.19-2.95-4.79-4.42
	c-1.46-1.35-2.91-2.71-4.37-4.07c-0.03-0.03-0.07-0.06-0.1-0.09c-0.34,0.21-0.67,0.43-1.01,0.61c-0.88,0.48-1.82,0.83-2.81,1
	c-0.75,0.13-1.5,0.13-2.25,0.08c-3.48-0.22-6.19-2.61-7.35-5.18c-0.43-0.95-0.69-1.95-0.74-2.99c0-0.04-0.01-0.08-0.02-0.12
	c0-0.38,0-0.75,0-1.13C0.02,8.02,0.04,7.8,0.07,7.58C0.3,6.1,0.83,4.74,1.75,3.55c0.96-1.24,2.13-2.22,3.59-2.85
	c1.08-0.46,2.2-0.69,3.38-0.69c1.2-0.01,2.36,0.15,3.47,0.61c1.25,0.52,2.32,1.29,3.23,2.28c1.18,1.28,1.89,2.79,2.18,4.5
	C17.7,8,17.7,8.59,17.68,9.18c-0.03,1.29-0.31,2.53-0.92,3.67c-0.26,0.49-0.58,0.95-0.89,1.42c-0.07,0.11-0.07,0.18,0.01,0.27
	c0.32,0.32,0.62,0.65,0.95,0.96c1.95,1.84,3.91,3.66,5.86,5.5c0.67,0.63,1.33,1.28,2,1.92c0.2,0.2,0.41,0.4,0.47,0.7
	C25.16,23.72,25.16,23.82,25.16,23.92z M8.89,16.61c4.09,0.08,7.77-3.39,7.74-7.79c-0.03-4.51-3.75-7.89-8.09-7.74
	c-3.88,0.13-7.5,3.41-7.46,7.91C1.1,12.87,4.37,16.67,8.89,16.61z"/>
</svg>
