<?xml version="1.0" encoding="utf-8"?>
<!-- Generator: Adobe Illustrator 25.2.1, SVG Export Plug-In . SVG Version: 6.00 Build 0)  -->
<svg version="1.1" id="Слой_1" xmlns="http://www.w3.org/2000/svg" xmlns:xlink="http://www.w3.org/1999/xlink" x="0px" y="0px"
	 viewBox="0 0 22.5 14.54" style="enable-background:new 0 0 22.5 14.54;" xml:space="preserve">
<g transform="translate(0.000000,827.000000) scale(0.100000,-0.100000)">
	<path d="M35.52,8269.84c-0.44-0.07-1.58-0.23-2.55-0.35c-11.31-1.34-21.84-7.96-27.73-17.44c-2.53-4.08-3.99-8.23-4.8-13.66
		l-0.44-2.9v-38.17v-38.17l0.44-2.9c0.46-3.11,0.83-4.68,1.69-7.12c2.92-8.39,9.46-15.72,17.85-19.97c4.66-2.37,8.7-3.5,15.54-4.34
		c2.09-0.26,151.94-0.26,154.03,0c8.46,1.04,13.77,2.85,19.36,6.59c7.65,5.1,12.78,12.26,14.95,20.8c1.2,4.66,1.13,2.13,1.13,45.12
		c0,36.36-0.02,39-0.32,41.06c-1.72,12.11-9,21.96-20.26,27.43c-3.94,1.92-7.61,3.06-11.6,3.59c-1.16,0.16-2.64,0.37-3.29,0.46
		C188.1,8270.05,36.71,8270.05,35.52,8269.84z M91.4,8237.24c3.94-2.25,20.64-11.83,37.14-21.29c16.49-9.44,30.35-17.42,30.82-17.71
		c0.46-0.3,0.83-0.65,0.83-0.83c0-0.19-11.69-7.07-37.65-22.14c-20.71-12.03-37.86-21.89-38.12-21.94l-0.49-0.11l-0.11,19.15
		c-0.16,24.74-0.16,68.71,0,68.86c0.05,0.07,0.18,0.12,0.26,0.12S87.46,8239.51,91.4,8237.24z"/>
</g>
</svg>
