<?xml version="1.0" encoding="utf-8"?>
<!-- Generator: Adobe Illustrator 25.2.1, SVG Export Plug-In . SVG Version: 6.00 Build 0)  -->
<svg version="1.1" id="Слой_1" xmlns="http://www.w3.org/2000/svg" xmlns:xlink="http://www.w3.org/1999/xlink" x="0px" y="0px"
	 viewBox="0 0 19.59 25" style="enable-background:new 0 0 19.59 25;" xml:space="preserve">
<style type="text/css">
	.st0{fill:#FFFFFF;}
</style>
<path class="st0" d="M18.97,6.82h-3.75V5.28C15.22,2.36,12.86,0,9.95,0C7.03,0,4.67,2.36,4.67,5.28v1.54H0.61
	C0.27,6.82,0,7.09,0,7.42V21.7c0,1.68,1.36,3.04,3.04,3.04h13.51c1.68,0,3.04-1.36,3.04-3.04V7.42C19.58,7.09,19.31,6.82,18.97,6.82
	z M5.88,5.27c0-2.24,1.82-4.06,4.06-4.06c2.24,0,4.06,1.82,4.06,4.06v1.54H5.88V5.27z M18.36,21.7c0,1.01-0.82,1.82-1.82,1.82H3.03
	c-1.01,0-1.82-0.82-1.82-1.82V8.03h3.45v2.47c0,0.34,0.27,0.61,0.61,0.61c0.34,0,0.61-0.27,0.61-0.61V8.03h8.13v2.47
	c0,0.34,0.27,0.61,0.61,0.61c0.34,0,0.61-0.27,0.61-0.61V8.03h3.14V21.7z"/>
</svg>
